<svg class="icon" viewBox="0 0 1735 1024" xmlns="http://www.w3.org/2000/svg" data-spm-anchor-id="a313x.7781069.0.i1" width="54.219" height="32"><defs><style/></defs><path d="M953.915 519.615c-.13-1.781-.257-3.589-.517-5.373l-.36-2.66c-.13-.877-.31-1.755-.466-2.632a95.613 95.613 0 0 0-5.89-20.196c-5.295-12.785-13.041-23.993-22.263-32.903s-19.731-15.73-30.656-20.121c-10.925-4.392-22.03-6.612-32.568-6.947l-.49-.026h-3.382c-.569-.026-1.29.026-1.963.052s-1.369.078-2.041.104a74.571 74.571 0 0 0-21.773 4.7c-4.391 1.678-8.47 3.693-12.216 5.94s-7.128 4.726-10.151 7.36-5.734 5.346-8.084 8.135a73.797 73.797 0 0 0-6.121 8.367 69.862 69.862 0 0 0-7.36 15.652 76.436 76.436 0 0 0-2.867 12.294c-.208 1.677-.413 3.176-.465 4.47-.078 1.29-.155 2.375-.155 3.253 0 1.73-.026 2.633-.026 2.633s.155-.904.464-2.61c.13-.852.413-1.885.673-3.15.257-1.264.673-2.685 1.112-4.287.955-3.176 2.324-7.05 4.443-11.338.543-1.086 1.086-2.169 1.73-3.28.308-.543.594-1.112.955-1.678l1.086-1.703c1.42-2.324 3.124-4.623 5.035-6.973 1.911-2.35 4.106-4.622 6.508-6.895a70.717 70.717 0 0 1 8.084-6.406 67.209 67.209 0 0 1 20.687-9.401 66.77 66.77 0 0 1 12.216-1.99 65.973 65.973 0 0 1 6.404-.103l1.55.078c.517.026 1.008.026 1.654.104.595.078 1.213.13 1.808.182l.904.077h.052l.62.104a83.565 83.565 0 0 1 26.86 8.267 80.409 80.409 0 0 1 23.788 18.362c3.436 3.9 6.612 8.136 9.297 12.707a76.762 76.762 0 0 1 6.715 14.618 80.784 80.784 0 0 1 3.693 15.986c.104.699.208 1.369.257 2.068l.156 2.067c.13 1.394.13 2.789.182 4.183.026.722.026 1.42 0 2.042l-.052 1.937c0 .335 0 .647-.026 1.008l-.257 3.64-.052.595c.026-.156-.026.361 0 0l-.026.283-.13 1.086-.283 2.168c-.156 1.446-.439 2.867-.699 4.314l-.36 2.168-.491 2.142c-.31 1.447-.595 2.867-1.034 4.288a98.83 98.83 0 0 1-6.069 16.685c-5.14 10.77-12.19 20.817-20.973 29.288a99.205 99.205 0 0 1-14.309 11.468 98.136 98.136 0 0 1-16.246 8.754 95.5 95.5 0 0 1-17.693 5.526c-3.049.647-6.12 1.112-9.196 1.472l-2.324.234c-.774.078-1.55.156-2.324.182l-2.324.13c-.774.026-1.577.104-2.273.078h-3.796l-5.604-.254c.069.009.444.04-.078-.003l.078.003a.118.118 0 0 1-.026-.003c-3.202-.335-6.404-.595-9.583-1.137l-2.376-.361c-.8-.13-1.577-.31-2.376-.465-1.577-.335-3.15-.621-4.727-.982l-4.674-1.187c-1.577-.36-3.075-.93-4.623-1.368-12.293-3.77-23.914-9.583-34.453-16.89a146.364 146.364 0 0 1-14.852-12.164c-4.674-4.366-8.91-9.17-12.836-14.18-.956-1.29-1.963-2.505-2.867-3.822l-2.711-3.926c-1.704-2.686-3.436-5.322-4.934-8.11-1.603-2.738-2.945-5.579-4.366-8.394-.647-1.446-1.264-2.867-1.911-4.313-.673-1.42-1.164-2.92-1.756-4.366-2.22-5.838-4.08-11.803-5.347-17.872l-.517-2.272-.412-2.272c-.257-1.499-.595-3.023-.8-4.545-.208-1.524-.387-3.048-.595-4.57a34.416 34.416 0 0 1-.234-2.298l-.182-2.299c-.309-3.097-.283-5.913-.413-8.832.026-1.654.078-3.305.104-4.96l.052-2.168.182-2.298c.234-3.075.387-6.147.826-9.17.182-1.525.36-3.049.543-4.545.234-1.524.517-2.996.748-4.495 1.989-11.933 5.373-23.349 9.634-34.118 4.262-10.77 9.71-20.739 15.756-29.909 6.043-9.17 12.862-17.433 19.99-24.795 14.284-14.8 30.166-25.647 45.197-33.394a558.84 558.84 0 0 1 5.604-2.789 369.26 369.26 0 0 1 5.552-2.428c.904-.387 1.808-.8 2.712-1.163.903-.361 1.807-.7 2.71-1.034 1.808-.673 3.54-1.395 5.296-1.99 3.514-1.111 6.845-2.35 10.151-3.175 1.629-.465 3.228-.904 4.805-1.343 1.576-.387 3.124-.699 4.622-1.06 12.06-2.685 21.85-3.718 28.514-4.131 1.678-.156 3.15-.156 4.444-.208s2.35-.104 3.227-.13c.959-.043 1.638-.07 2.076-.084-.436-.057-1.094-.144-1.998-.25-.851-.13-1.91-.258-3.202-.414s-2.763-.387-4.443-.465c-3.358-.207-7.567-.594-12.476-.568-1.238-.026-2.532-.026-3.848-.052l-4.106.156c-1.42.052-2.893.104-4.391.182-1.499.103-3.023.256-4.623.412-1.602.156-3.228.283-4.908.491-1.654.234-3.358.491-5.113.748-3.514.439-7.129 1.317-10.925 2.041-1.886.387-4.779 1.164-5.76 1.42l-2.971.775c-.982.256-1.964.594-2.971.903-2.016.647-4.054 1.265-6.121 1.938-2.042.747-4.106 1.524-6.225 2.298-8.393 3.254-17.098 7.437-25.904 12.576-8.806 5.14-17.537 11.469-26.06 18.854a180.818 180.818 0 0 0-24.123 25.673 176.804 176.804 0 0 0-19.835 32.389c-5.63 11.829-10.022 24.691-13.068 38.172-.36 1.703-.773 3.384-1.111 5.087-.283 1.73-.595 3.436-.878 5.165-.673 3.462-.982 6.947-1.394 10.46l-.31 2.634-.181 2.789-.31 5.01c-.025 3.744-.181 7.67.027 11.26a142.793 142.793 0 0 0 2.428 22.08c1.343 7.36 3.358 14.645 5.838 21.8.647 1.78 1.239 3.588 1.963 5.346l2.169 5.295c1.602 3.462 3.15 6.973 5.009 10.33a142.986 142.986 0 0 0 12.398 19.527c4.674 6.173 9.735 12.112 15.342 17.563s11.595 10.512 18.002 15.083c12.837 9.04 27.094 16.272 42.176 20.973l2.841.877c.93.283 1.886.57 2.841.8l5.734 1.42c1.912.44 3.85.774 5.786 1.164.982.182 1.938.413 2.92.543l2.918.413c3.901.62 7.825.93 11.725 1.29.283.026-.104 0 .722.052l5.682.234h2.376l3.176-.026c16.195-.387 32-4.105 46.516-10.512a124.477 124.477 0 0 0 20.586-11.572 126.186 126.186 0 0 0 17.768-15.135c10.795-11.08 19.396-24.045 25.208-37.863a121.482 121.482 0 0 0 6.742-21.177c.439-1.782.722-3.59 1.06-5.374l.49-2.685.335-2.71c.208-1.808.465-3.59.57-5.4l.181-2.685.104-1.343.026-.334c0-.052.026-.774.026-.621v-.621l.052-2.428.026-1.213-.026-1.42c-.052-1.894-.052-3.91-.234-5.665z"/><path d="M845.284 0C562.515 0 333.285 229.23 333.285 511.999S562.515 1024 845.284 1024s511.998-229.23 511.998-511.999S1128.055 0 845.284 0zm336.764 349.593a95.856 95.856 0 0 0-1.472 7.645c-.413 2.919-2.272 11.26-4.779 21.876 16.865 11.39 28.05 31.408 28.05 54.237 0 165.449-72.212 309.567-283.326 335.757 0 0-70.251 7.902-210.365-17.768a29.663 29.663 0 0 1-1.55-1.06c-15.756-3.77-30.943-8.705-42.642-14.127l-173.172-80.27c-12.888-5.965-12.06-10.821 2.633-10.821H632.62c-25.595-39.8-40.496-87.607-40.496-139.002 0-138.772 108.706-251.275 242.777-251.275 127.82 0 232.577 102.25 242.082 232.034a228.717 228.717 0 0 0 6.302-53.462c0-24.201 12.603-45.275 31.2-56.2-5.062-20.274-15.444-62.246-18.906-78.515h-.234c-11.647 0-21.1-10.048-21.1-22.445s9.453-22.445 21.1-22.445 21.1 10.047 21.1 22.445c0 6.972-2.97 13.223-7.671 17.329 4.391 10.538 28.306 60.41 35.668 75.7 5.4.078 10.617.903 15.574 2.402 3.072-6.664 5.448-11.881 6.456-14.361 1.342-3.332 3.796-7.516 6.612-11.803-5.14-4.106-8.446-10.64-8.446-17.976 0-12.398 9.453-22.445 21.1-22.445s21.1 10.047 21.1 22.445-9.453 22.445-21.1 22.445a19.85 19.85 0 0 1-3.719-.36l.03.02z"/></svg>